<?xml version="1.0" encoding="utf-8" standalone="no"?>
<!DOCTYPE svg PUBLIC "-//W3C//DTD SVG 1.1//EN"
  "http://www.w3.org/Graphics/SVG/1.1/DTD/svg11.dtd">
<!-- Created with matplotlib (https://matplotlib.org/) -->
<svg height="301.724375pt" version="1.1" viewBox="0 0 435.001245 301.724375" width="435.001245pt" xmlns="http://www.w3.org/2000/svg" xmlns:xlink="http://www.w3.org/1999/xlink">
 <metadata>
  <rdf:RDF xmlns:cc="http://creativecommons.org/ns#" xmlns:dc="http://purl.org/dc/elements/1.1/" xmlns:rdf="http://www.w3.org/1999/02/22-rdf-syntax-ns#">
   <cc:Work>
    <dc:type rdf:resource="http://purl.org/dc/dcmitype/StillImage"/>
    <dc:date>2020-10-18T14:44:57.656892</dc:date>
    <dc:format>image/svg+xml</dc:format>
    <dc:creator>
     <cc:Agent>
      <dc:title>Matplotlib v3.3.2, https://matplotlib.org/</dc:title>
     </cc:Agent>
    </dc:creator>
   </cc:Work>
  </rdf:RDF>
 </metadata>
 <defs>
  <style type="text/css">*{stroke-linecap:butt;stroke-linejoin:round;}</style>
 </defs>
 <g id="figure_1">
  <g id="patch_1">
   <path d="M 0 301.724375 
L 435.001245 301.724375 
L 435.001245 0 
L 0 0 
z
" style="fill:#ffffff;"/>
  </g>
  <g id="axes_1">
   <g id="patch_2">
    <path d="M 245.874115 142.133688 
C 242.648649 116.404354 230.129991 92.719807 210.687242 75.562249 
C 191.244494 58.404691 166.186721 48.929325 140.256 48.929325 
L 140.256 155.374125 
L 245.874115 142.133688 
z
" style="fill:#fbb4ae;"/>
   </g>
   <g id="patch_3">
    <path d="M 169.984658 257.583236 
C 194.292739 250.51296 215.298932 234.997774 229.204506 213.843422 
C 243.110081 192.68907 249.023048 167.252522 245.874115 142.133688 
L 140.256 155.374125 
L 169.984658 257.583236 
z
" style="fill:#decbe4;"/>
   </g>
   <g id="patch_4">
    <path d="M 75.111911 239.556921 
C 88.384226 249.827581 103.899234 256.815348 120.38642 259.948 
C 136.873607 263.080651 153.870302 262.270276 169.984658 257.583236 
L 140.256 155.374125 
L 75.111911 239.556921 
z
" style="fill:#e5d8bd;"/>
   </g>
   <g id="patch_5">
    <path d="M 35.710068 175.390206 
C 38.128697 188.02294 42.817122 200.113327 49.547579 211.074016 
C 56.278036 222.034704 64.939742 231.685281 75.111911 239.556921 
L 140.256 155.374125 
L 35.710068 175.390206 
z
" style="fill:#7fc97f;"/>
   </g>
   <g id="patch_6">
    <path d="M 34.308345 145.098429 
C 33.818579 150.148172 33.690464 155.226475 33.924982 160.294489 
C 34.159499 165.362504 34.756049 170.407274 35.710068 175.390206 
L 140.256 155.374125 
L 34.308345 145.098429 
z
" style="fill:#ffff99;"/>
   </g>
   <g id="patch_7">
    <path d="M 41.06589 116.75007 
C 39.297218 121.292184 37.84262 125.950425 36.712372 130.691894 
C 35.582123 135.433364 34.77889 140.246874 34.308345 145.098429 
L 140.256 155.374125 
L 41.06589 116.75007 
z
" style="fill:#bf5b17;"/>
   </g>
   <g id="patch_8">
    <path d="M 52.810369 94.680163 
C 50.428361 98.112072 48.250452 101.681233 46.287946 105.369122 
C 44.32544 109.057011 42.581738 112.857236 41.06589 116.75007 
L 140.256 155.374125 
L 52.810369 94.680163 
z
" style="fill:#377eb8;"/>
   </g>
   <g id="patch_9">
    <path d="M 63.7851 81.32889 
C 61.778883 83.400829 59.857702 85.553448 58.026313 87.781418 
C 56.194924 90.009389 54.45484 92.310869 52.810369 94.680163 
L 140.256 155.374125 
L 63.7851 81.32889 
z
" style="fill:#ff7f00;"/>
   </g>
   <g id="patch_10">
    <path d="M 73.009573 72.861013 
C 71.390761 74.180311 69.811123 75.546962 68.272712 76.959192 
C 66.734301 78.371422 65.237782 79.828618 63.7851 81.32889 
L 140.256 155.374125 
L 73.009573 72.861013 
z
" style="fill:#f781bf;"/>
   </g>
   <g id="patch_11">
    <path d="M 82.161144 66.18061 
C 80.577945 67.211803 79.022482 68.284966 77.496409 69.398959 
C 75.970336 70.512951 74.474194 71.667379 73.009573 72.861013 
L 140.256 155.374125 
L 82.161144 66.18061 
z
" style="fill:#aec7e8;"/>
   </g>
   <g id="patch_12">
    <path d="M 91.440007 60.782929 
C 89.849377 61.603811 88.279705 62.464684 86.73249 63.364727 
C 85.185275 64.26477 83.661008 65.203696 82.161144 66.18061 
L 140.256 155.374125 
L 91.440007 60.782929 
z
" style="fill:#2ca02c;"/>
   </g>
   <g id="patch_13">
    <path d="M 101.215334 56.347251 
C 99.550114 57.003752 97.901718 57.702153 96.271719 58.441785 
C 94.641721 59.181418 93.030638 59.962047 91.440007 60.782929 
L 140.256 155.374125 
L 101.215334 56.347251 
z
" style="fill:#ff9896;"/>
   </g>
   <g id="patch_14">
    <path d="M 110.241023 53.248729 
C 108.71453 53.69737 107.198287 54.18018 105.693438 54.696795 
C 104.188589 55.21341 102.695513 55.7637 101.215334 56.347251 
L 140.256 155.374125 
L 110.241023 53.248729 
z
" style="fill:#8c564b;"/>
   </g>
   <g id="patch_15">
    <path d="M 118.338917 51.210134 
C 116.976587 51.496782 115.62001 51.810128 114.269972 52.149991 
C 112.919933 52.489855 111.576692 52.856171 110.241023 53.248729 
L 140.256 155.374125 
L 118.338917 51.210134 
z
" style="fill:#f7b6d2;"/>
   </g>
   <g id="patch_16">
    <path d="M 126.571697 49.812601 
C 125.191089 49.991574 123.814124 50.197615 122.441598 50.430604 
C 121.069072 50.663594 119.701248 50.923487 118.338917 51.210134 
L 140.256 155.374125 
L 126.571697 49.812601 
z
" style="fill:#bcbd22;"/>
   </g>
   <g id="patch_17">
    <path d="M 132.506794 49.211772 
C 131.515048 49.284163 130.524364 49.370448 129.535036 49.470601 
C 128.545707 49.570754 127.557831 49.684765 126.571697 49.812601 
L 140.256 155.374125 
L 132.506794 49.211772 
z
" style="fill:#9edae5;"/>
   </g>
   <g id="patch_18">
    <path d="M 140.256009 48.929325 
C 138.963294 48.929325 137.670686 48.952874 136.378829 48.99996 
C 135.086971 49.047046 133.796079 49.117662 132.506794 49.211772 
L 140.256 155.374125 
L 140.256009 48.929325 
z
" style="fill:#6b6ecf;"/>
   </g>
   <g id="matplotlib.axis_1"/>
   <g id="matplotlib.axis_2"/>
   <g id="text_1">
    <!-- Commits in the last year by repository -->
    <g transform="translate(24.8985 16.318125)scale(0.12 -0.12)">
     <defs>
      <path d="M 64.40625 67.28125 
L 64.40625 56.890625 
Q 59.421875 61.53125 53.78125 63.8125 
Q 48.140625 66.109375 41.796875 66.109375 
Q 29.296875 66.109375 22.65625 58.46875 
Q 16.015625 50.828125 16.015625 36.375 
Q 16.015625 21.96875 22.65625 14.328125 
Q 29.296875 6.6875 41.796875 6.6875 
Q 48.140625 6.6875 53.78125 8.984375 
Q 59.421875 11.28125 64.40625 15.921875 
L 64.40625 5.609375 
Q 59.234375 2.09375 53.4375 0.328125 
Q 47.65625 -1.421875 41.21875 -1.421875 
Q 24.65625 -1.421875 15.125 8.703125 
Q 5.609375 18.84375 5.609375 36.375 
Q 5.609375 53.953125 15.125 64.078125 
Q 24.65625 74.21875 41.21875 74.21875 
Q 47.75 74.21875 53.53125 72.484375 
Q 59.328125 70.75 64.40625 67.28125 
z
" id="DejaVuSans-67"/>
      <path d="M 30.609375 48.390625 
Q 23.390625 48.390625 19.1875 42.75 
Q 14.984375 37.109375 14.984375 27.296875 
Q 14.984375 17.484375 19.15625 11.84375 
Q 23.34375 6.203125 30.609375 6.203125 
Q 37.796875 6.203125 41.984375 11.859375 
Q 46.1875 17.53125 46.1875 27.296875 
Q 46.1875 37.015625 41.984375 42.703125 
Q 37.796875 48.390625 30.609375 48.390625 
z
M 30.609375 56 
Q 42.328125 56 49.015625 48.375 
Q 55.71875 40.765625 55.71875 27.296875 
Q 55.71875 13.875 49.015625 6.21875 
Q 42.328125 -1.421875 30.609375 -1.421875 
Q 18.84375 -1.421875 12.171875 6.21875 
Q 5.515625 13.875 5.515625 27.296875 
Q 5.515625 40.765625 12.171875 48.375 
Q 18.84375 56 30.609375 56 
z
" id="DejaVuSans-111"/>
      <path d="M 52 44.1875 
Q 55.375 50.25 60.0625 53.125 
Q 64.75 56 71.09375 56 
Q 79.640625 56 84.28125 50.015625 
Q 88.921875 44.046875 88.921875 33.015625 
L 88.921875 0 
L 79.890625 0 
L 79.890625 32.71875 
Q 79.890625 40.578125 77.09375 44.375 
Q 74.3125 48.1875 68.609375 48.1875 
Q 61.625 48.1875 57.5625 43.546875 
Q 53.515625 38.921875 53.515625 30.90625 
L 53.515625 0 
L 44.484375 0 
L 44.484375 32.71875 
Q 44.484375 40.625 41.703125 44.40625 
Q 38.921875 48.1875 33.109375 48.1875 
Q 26.21875 48.1875 22.15625 43.53125 
Q 18.109375 38.875 18.109375 30.90625 
L 18.109375 0 
L 9.078125 0 
L 9.078125 54.6875 
L 18.109375 54.6875 
L 18.109375 46.1875 
Q 21.1875 51.21875 25.484375 53.609375 
Q 29.78125 56 35.6875 56 
Q 41.65625 56 45.828125 52.96875 
Q 50 49.953125 52 44.1875 
z
" id="DejaVuSans-109"/>
      <path d="M 9.421875 54.6875 
L 18.40625 54.6875 
L 18.40625 0 
L 9.421875 0 
z
M 9.421875 75.984375 
L 18.40625 75.984375 
L 18.40625 64.59375 
L 9.421875 64.59375 
z
" id="DejaVuSans-105"/>
      <path d="M 18.3125 70.21875 
L 18.3125 54.6875 
L 36.8125 54.6875 
L 36.8125 47.703125 
L 18.3125 47.703125 
L 18.3125 18.015625 
Q 18.3125 11.328125 20.140625 9.421875 
Q 21.96875 7.515625 27.59375 7.515625 
L 36.8125 7.515625 
L 36.8125 0 
L 27.59375 0 
Q 17.1875 0 13.234375 3.875 
Q 9.28125 7.765625 9.28125 18.015625 
L 9.28125 47.703125 
L 2.6875 47.703125 
L 2.6875 54.6875 
L 9.28125 54.6875 
L 9.28125 70.21875 
z
" id="DejaVuSans-116"/>
      <path d="M 44.28125 53.078125 
L 44.28125 44.578125 
Q 40.484375 46.53125 36.375 47.5 
Q 32.28125 48.484375 27.875 48.484375 
Q 21.1875 48.484375 17.84375 46.4375 
Q 14.5 44.390625 14.5 40.28125 
Q 14.5 37.15625 16.890625 35.375 
Q 19.28125 33.59375 26.515625 31.984375 
L 29.59375 31.296875 
Q 39.15625 29.25 43.1875 25.515625 
Q 47.21875 21.78125 47.21875 15.09375 
Q 47.21875 7.46875 41.1875 3.015625 
Q 35.15625 -1.421875 24.609375 -1.421875 
Q 20.21875 -1.421875 15.453125 -0.5625 
Q 10.6875 0.296875 5.421875 2 
L 5.421875 11.28125 
Q 10.40625 8.6875 15.234375 7.390625 
Q 20.0625 6.109375 24.8125 6.109375 
Q 31.15625 6.109375 34.5625 8.28125 
Q 37.984375 10.453125 37.984375 14.40625 
Q 37.984375 18.0625 35.515625 20.015625 
Q 33.0625 21.96875 24.703125 23.78125 
L 21.578125 24.515625 
Q 13.234375 26.265625 9.515625 29.90625 
Q 5.8125 33.546875 5.8125 39.890625 
Q 5.8125 47.609375 11.28125 51.796875 
Q 16.75 56 26.8125 56 
Q 31.78125 56 36.171875 55.265625 
Q 40.578125 54.546875 44.28125 53.078125 
z
" id="DejaVuSans-115"/>
      <path id="DejaVuSans-32"/>
      <path d="M 54.890625 33.015625 
L 54.890625 0 
L 45.90625 0 
L 45.90625 32.71875 
Q 45.90625 40.484375 42.875 44.328125 
Q 39.84375 48.1875 33.796875 48.1875 
Q 26.515625 48.1875 22.3125 43.546875 
Q 18.109375 38.921875 18.109375 30.90625 
L 18.109375 0 
L 9.078125 0 
L 9.078125 54.6875 
L 18.109375 54.6875 
L 18.109375 46.1875 
Q 21.34375 51.125 25.703125 53.5625 
Q 30.078125 56 35.796875 56 
Q 45.21875 56 50.046875 50.171875 
Q 54.890625 44.34375 54.890625 33.015625 
z
" id="DejaVuSans-110"/>
      <path d="M 54.890625 33.015625 
L 54.890625 0 
L 45.90625 0 
L 45.90625 32.71875 
Q 45.90625 40.484375 42.875 44.328125 
Q 39.84375 48.1875 33.796875 48.1875 
Q 26.515625 48.1875 22.3125 43.546875 
Q 18.109375 38.921875 18.109375 30.90625 
L 18.109375 0 
L 9.078125 0 
L 9.078125 75.984375 
L 18.109375 75.984375 
L 18.109375 46.1875 
Q 21.34375 51.125 25.703125 53.5625 
Q 30.078125 56 35.796875 56 
Q 45.21875 56 50.046875 50.171875 
Q 54.890625 44.34375 54.890625 33.015625 
z
" id="DejaVuSans-104"/>
      <path d="M 56.203125 29.59375 
L 56.203125 25.203125 
L 14.890625 25.203125 
Q 15.484375 15.921875 20.484375 11.0625 
Q 25.484375 6.203125 34.421875 6.203125 
Q 39.59375 6.203125 44.453125 7.46875 
Q 49.3125 8.734375 54.109375 11.28125 
L 54.109375 2.78125 
Q 49.265625 0.734375 44.1875 -0.34375 
Q 39.109375 -1.421875 33.890625 -1.421875 
Q 20.796875 -1.421875 13.15625 6.1875 
Q 5.515625 13.8125 5.515625 26.8125 
Q 5.515625 40.234375 12.765625 48.109375 
Q 20.015625 56 32.328125 56 
Q 43.359375 56 49.78125 48.890625 
Q 56.203125 41.796875 56.203125 29.59375 
z
M 47.21875 32.234375 
Q 47.125 39.59375 43.09375 43.984375 
Q 39.0625 48.390625 32.421875 48.390625 
Q 24.90625 48.390625 20.390625 44.140625 
Q 15.875 39.890625 15.1875 32.171875 
z
" id="DejaVuSans-101"/>
      <path d="M 9.421875 75.984375 
L 18.40625 75.984375 
L 18.40625 0 
L 9.421875 0 
z
" id="DejaVuSans-108"/>
      <path d="M 34.28125 27.484375 
Q 23.390625 27.484375 19.1875 25 
Q 14.984375 22.515625 14.984375 16.5 
Q 14.984375 11.71875 18.140625 8.90625 
Q 21.296875 6.109375 26.703125 6.109375 
Q 34.1875 6.109375 38.703125 11.40625 
Q 43.21875 16.703125 43.21875 25.484375 
L 43.21875 27.484375 
z
M 52.203125 31.203125 
L 52.203125 0 
L 43.21875 0 
L 43.21875 8.296875 
Q 40.140625 3.328125 35.546875 0.953125 
Q 30.953125 -1.421875 24.3125 -1.421875 
Q 15.921875 -1.421875 10.953125 3.296875 
Q 6 8.015625 6 15.921875 
Q 6 25.140625 12.171875 29.828125 
Q 18.359375 34.515625 30.609375 34.515625 
L 43.21875 34.515625 
L 43.21875 35.40625 
Q 43.21875 41.609375 39.140625 45 
Q 35.0625 48.390625 27.6875 48.390625 
Q 23 48.390625 18.546875 47.265625 
Q 14.109375 46.140625 10.015625 43.890625 
L 10.015625 52.203125 
Q 14.9375 54.109375 19.578125 55.046875 
Q 24.21875 56 28.609375 56 
Q 40.484375 56 46.34375 49.84375 
Q 52.203125 43.703125 52.203125 31.203125 
z
" id="DejaVuSans-97"/>
      <path d="M 32.171875 -5.078125 
Q 28.375 -14.84375 24.75 -17.8125 
Q 21.140625 -20.796875 15.09375 -20.796875 
L 7.90625 -20.796875 
L 7.90625 -13.28125 
L 13.1875 -13.28125 
Q 16.890625 -13.28125 18.9375 -11.515625 
Q 21 -9.765625 23.484375 -3.21875 
L 25.09375 0.875 
L 2.984375 54.6875 
L 12.5 54.6875 
L 29.59375 11.921875 
L 46.6875 54.6875 
L 56.203125 54.6875 
z
" id="DejaVuSans-121"/>
      <path d="M 41.109375 46.296875 
Q 39.59375 47.171875 37.8125 47.578125 
Q 36.03125 48 33.890625 48 
Q 26.265625 48 22.1875 43.046875 
Q 18.109375 38.09375 18.109375 28.8125 
L 18.109375 0 
L 9.078125 0 
L 9.078125 54.6875 
L 18.109375 54.6875 
L 18.109375 46.1875 
Q 20.953125 51.171875 25.484375 53.578125 
Q 30.03125 56 36.53125 56 
Q 37.453125 56 38.578125 55.875 
Q 39.703125 55.765625 41.0625 55.515625 
z
" id="DejaVuSans-114"/>
      <path d="M 48.6875 27.296875 
Q 48.6875 37.203125 44.609375 42.84375 
Q 40.53125 48.484375 33.40625 48.484375 
Q 26.265625 48.484375 22.1875 42.84375 
Q 18.109375 37.203125 18.109375 27.296875 
Q 18.109375 17.390625 22.1875 11.75 
Q 26.265625 6.109375 33.40625 6.109375 
Q 40.53125 6.109375 44.609375 11.75 
Q 48.6875 17.390625 48.6875 27.296875 
z
M 18.109375 46.390625 
Q 20.953125 51.265625 25.265625 53.625 
Q 29.59375 56 35.59375 56 
Q 45.5625 56 51.78125 48.09375 
Q 58.015625 40.1875 58.015625 27.296875 
Q 58.015625 14.40625 51.78125 6.484375 
Q 45.5625 -1.421875 35.59375 -1.421875 
Q 29.59375 -1.421875 25.265625 0.953125 
Q 20.953125 3.328125 18.109375 8.203125 
L 18.109375 0 
L 9.078125 0 
L 9.078125 75.984375 
L 18.109375 75.984375 
z
" id="DejaVuSans-98"/>
      <path d="M 18.109375 8.203125 
L 18.109375 -20.796875 
L 9.078125 -20.796875 
L 9.078125 54.6875 
L 18.109375 54.6875 
L 18.109375 46.390625 
Q 20.953125 51.265625 25.265625 53.625 
Q 29.59375 56 35.59375 56 
Q 45.5625 56 51.78125 48.09375 
Q 58.015625 40.1875 58.015625 27.296875 
Q 58.015625 14.40625 51.78125 6.484375 
Q 45.5625 -1.421875 35.59375 -1.421875 
Q 29.59375 -1.421875 25.265625 0.953125 
Q 20.953125 3.328125 18.109375 8.203125 
z
M 48.6875 27.296875 
Q 48.6875 37.203125 44.609375 42.84375 
Q 40.53125 48.484375 33.40625 48.484375 
Q 26.265625 48.484375 22.1875 42.84375 
Q 18.109375 37.203125 18.109375 27.296875 
Q 18.109375 17.390625 22.1875 11.75 
Q 26.265625 6.109375 33.40625 6.109375 
Q 40.53125 6.109375 44.609375 11.75 
Q 48.6875 17.390625 48.6875 27.296875 
z
" id="DejaVuSans-112"/>
     </defs>
     <use xlink:href="#DejaVuSans-67"/>
     <use x="69.824219" xlink:href="#DejaVuSans-111"/>
     <use x="131.005859" xlink:href="#DejaVuSans-109"/>
     <use x="228.417969" xlink:href="#DejaVuSans-109"/>
     <use x="325.830078" xlink:href="#DejaVuSans-105"/>
     <use x="353.613281" xlink:href="#DejaVuSans-116"/>
     <use x="392.822266" xlink:href="#DejaVuSans-115"/>
     <use x="444.921875" xlink:href="#DejaVuSans-32"/>
     <use x="476.708984" xlink:href="#DejaVuSans-105"/>
     <use x="504.492188" xlink:href="#DejaVuSans-110"/>
     <use x="567.871094" xlink:href="#DejaVuSans-32"/>
     <use x="599.658203" xlink:href="#DejaVuSans-116"/>
     <use x="638.867188" xlink:href="#DejaVuSans-104"/>
     <use x="702.246094" xlink:href="#DejaVuSans-101"/>
     <use x="763.769531" xlink:href="#DejaVuSans-32"/>
     <use x="795.556641" xlink:href="#DejaVuSans-108"/>
     <use x="823.339844" xlink:href="#DejaVuSans-97"/>
     <use x="884.619141" xlink:href="#DejaVuSans-115"/>
     <use x="936.71875" xlink:href="#DejaVuSans-116"/>
     <use x="975.927734" xlink:href="#DejaVuSans-32"/>
     <use x="1007.714844" xlink:href="#DejaVuSans-121"/>
     <use x="1066.894531" xlink:href="#DejaVuSans-101"/>
     <use x="1128.417969" xlink:href="#DejaVuSans-97"/>
     <use x="1189.697266" xlink:href="#DejaVuSans-114"/>
     <use x="1230.810547" xlink:href="#DejaVuSans-32"/>
     <use x="1262.597656" xlink:href="#DejaVuSans-98"/>
     <use x="1326.074219" xlink:href="#DejaVuSans-121"/>
     <use x="1385.253906" xlink:href="#DejaVuSans-32"/>
     <use x="1417.041016" xlink:href="#DejaVuSans-114"/>
     <use x="1455.904297" xlink:href="#DejaVuSans-101"/>
     <use x="1517.427734" xlink:href="#DejaVuSans-112"/>
     <use x="1580.904297" xlink:href="#DejaVuSans-111"/>
     <use x="1642.085938" xlink:href="#DejaVuSans-115"/>
     <use x="1694.185547" xlink:href="#DejaVuSans-105"/>
     <use x="1721.96875" xlink:href="#DejaVuSans-116"/>
     <use x="1761.177734" xlink:href="#DejaVuSans-111"/>
     <use x="1822.359375" xlink:href="#DejaVuSans-114"/>
     <use x="1863.472656" xlink:href="#DejaVuSans-121"/>
    </g>
   </g>
   <g id="legend_1">
    <g id="patch_19">
     <path d="M 282.97312 294.524375 
L 425.801245 294.524375 
Q 427.801245 294.524375 427.801245 292.524375 
L 427.801245 29.318125 
Q 427.801245 27.318125 425.801245 27.318125 
L 282.97312 27.318125 
Q 280.97312 27.318125 280.97312 29.318125 
L 280.97312 292.524375 
Q 280.97312 294.524375 282.97312 294.524375 
z
" style="fill:#ffffff;opacity:0.8;stroke:#cccccc;stroke-linejoin:miter;"/>
    </g>
    <g id="text_2">
     <!-- Repositories -->
     <g transform="translate(323.688745 38.916562)scale(0.1 -0.1)">
      <defs>
       <path d="M 44.390625 34.1875 
Q 47.5625 33.109375 50.5625 29.59375 
Q 53.5625 26.078125 56.59375 19.921875 
L 66.609375 0 
L 56 0 
L 46.6875 18.703125 
Q 43.0625 26.03125 39.671875 28.421875 
Q 36.28125 30.8125 30.421875 30.8125 
L 19.671875 30.8125 
L 19.671875 0 
L 9.8125 0 
L 9.8125 72.90625 
L 32.078125 72.90625 
Q 44.578125 72.90625 50.734375 67.671875 
Q 56.890625 62.453125 56.890625 51.90625 
Q 56.890625 45.015625 53.6875 40.46875 
Q 50.484375 35.9375 44.390625 34.1875 
z
M 19.671875 64.796875 
L 19.671875 38.921875 
L 32.078125 38.921875 
Q 39.203125 38.921875 42.84375 42.21875 
Q 46.484375 45.515625 46.484375 51.90625 
Q 46.484375 58.296875 42.84375 61.546875 
Q 39.203125 64.796875 32.078125 64.796875 
z
" id="DejaVuSans-82"/>
      </defs>
      <use xlink:href="#DejaVuSans-82"/>
      <use x="64.982422" xlink:href="#DejaVuSans-101"/>
      <use x="126.505859" xlink:href="#DejaVuSans-112"/>
      <use x="189.982422" xlink:href="#DejaVuSans-111"/>
      <use x="251.164062" xlink:href="#DejaVuSans-115"/>
      <use x="303.263672" xlink:href="#DejaVuSans-105"/>
      <use x="331.046875" xlink:href="#DejaVuSans-116"/>
      <use x="370.255859" xlink:href="#DejaVuSans-111"/>
      <use x="431.4375" xlink:href="#DejaVuSans-114"/>
      <use x="472.550781" xlink:href="#DejaVuSans-105"/>
      <use x="500.333984" xlink:href="#DejaVuSans-101"/>
      <use x="561.857422" xlink:href="#DejaVuSans-115"/>
     </g>
    </g>
    <g id="patch_20">
     <path d="M 284.97312 53.594687 
L 304.97312 53.594687 
L 304.97312 46.594687 
L 284.97312 46.594687 
z
" style="fill:#fbb4ae;"/>
    </g>
    <g id="text_3">
     <!-- tarallo -->
     <g transform="translate(312.97312 53.594687)scale(0.1 -0.1)">
      <use xlink:href="#DejaVuSans-116"/>
      <use x="39.208984" xlink:href="#DejaVuSans-97"/>
      <use x="100.488281" xlink:href="#DejaVuSans-114"/>
      <use x="141.601562" xlink:href="#DejaVuSans-97"/>
      <use x="202.880859" xlink:href="#DejaVuSans-108"/>
      <use x="230.664062" xlink:href="#DejaVuSans-108"/>
      <use x="258.447266" xlink:href="#DejaVuSans-111"/>
     </g>
    </g>
    <g id="patch_21">
     <path d="M 284.97312 68.272812 
L 304.97312 68.272812 
L 304.97312 61.272812 
L 284.97312 61.272812 
z
" style="fill:#decbe4;"/>
    </g>
    <g id="text_4">
     <!-- weeelab-telegram-bot -->
     <g transform="translate(312.97312 68.272812)scale(0.1 -0.1)">
      <defs>
       <path d="M 4.203125 54.6875 
L 13.1875 54.6875 
L 24.421875 12.015625 
L 35.59375 54.6875 
L 46.1875 54.6875 
L 57.421875 12.015625 
L 68.609375 54.6875 
L 77.59375 54.6875 
L 63.28125 0 
L 52.6875 0 
L 40.921875 44.828125 
L 29.109375 0 
L 18.5 0 
z
" id="DejaVuSans-119"/>
       <path d="M 4.890625 31.390625 
L 31.203125 31.390625 
L 31.203125 23.390625 
L 4.890625 23.390625 
z
" id="DejaVuSans-45"/>
       <path d="M 45.40625 27.984375 
Q 45.40625 37.75 41.375 43.109375 
Q 37.359375 48.484375 30.078125 48.484375 
Q 22.859375 48.484375 18.828125 43.109375 
Q 14.796875 37.75 14.796875 27.984375 
Q 14.796875 18.265625 18.828125 12.890625 
Q 22.859375 7.515625 30.078125 7.515625 
Q 37.359375 7.515625 41.375 12.890625 
Q 45.40625 18.265625 45.40625 27.984375 
z
M 54.390625 6.78125 
Q 54.390625 -7.171875 48.1875 -13.984375 
Q 42 -20.796875 29.203125 -20.796875 
Q 24.46875 -20.796875 20.265625 -20.09375 
Q 16.0625 -19.390625 12.109375 -17.921875 
L 12.109375 -9.1875 
Q 16.0625 -11.328125 19.921875 -12.34375 
Q 23.78125 -13.375 27.78125 -13.375 
Q 36.625 -13.375 41.015625 -8.765625 
Q 45.40625 -4.15625 45.40625 5.171875 
L 45.40625 9.625 
Q 42.625 4.78125 38.28125 2.390625 
Q 33.9375 0 27.875 0 
Q 17.828125 0 11.671875 7.65625 
Q 5.515625 15.328125 5.515625 27.984375 
Q 5.515625 40.671875 11.671875 48.328125 
Q 17.828125 56 27.875 56 
Q 33.9375 56 38.28125 53.609375 
Q 42.625 51.21875 45.40625 46.390625 
L 45.40625 54.6875 
L 54.390625 54.6875 
z
" id="DejaVuSans-103"/>
      </defs>
      <use xlink:href="#DejaVuSans-119"/>
      <use x="81.787109" xlink:href="#DejaVuSans-101"/>
      <use x="143.310547" xlink:href="#DejaVuSans-101"/>
      <use x="204.833984" xlink:href="#DejaVuSans-101"/>
      <use x="266.357422" xlink:href="#DejaVuSans-108"/>
      <use x="294.140625" xlink:href="#DejaVuSans-97"/>
      <use x="355.419922" xlink:href="#DejaVuSans-98"/>
      <use x="418.896484" xlink:href="#DejaVuSans-45"/>
      <use x="454.980469" xlink:href="#DejaVuSans-116"/>
      <use x="494.189453" xlink:href="#DejaVuSans-101"/>
      <use x="555.712891" xlink:href="#DejaVuSans-108"/>
      <use x="583.496094" xlink:href="#DejaVuSans-101"/>
      <use x="645.019531" xlink:href="#DejaVuSans-103"/>
      <use x="708.496094" xlink:href="#DejaVuSans-114"/>
      <use x="749.609375" xlink:href="#DejaVuSans-97"/>
      <use x="810.888672" xlink:href="#DejaVuSans-109"/>
      <use x="908.300781" xlink:href="#DejaVuSans-45"/>
      <use x="944.384766" xlink:href="#DejaVuSans-98"/>
      <use x="1007.861328" xlink:href="#DejaVuSans-111"/>
      <use x="1069.042969" xlink:href="#DejaVuSans-116"/>
     </g>
    </g>
    <g id="patch_22">
     <path d="M 284.97312 82.950937 
L 304.97312 82.950937 
L 304.97312 75.950937 
L 284.97312 75.950937 
z
" style="fill:#e5d8bd;"/>
    </g>
    <g id="text_5">
     <!-- peracotta -->
     <g transform="translate(312.97312 82.950937)scale(0.1 -0.1)">
      <defs>
       <path d="M 48.78125 52.59375 
L 48.78125 44.1875 
Q 44.96875 46.296875 41.140625 47.34375 
Q 37.3125 48.390625 33.40625 48.390625 
Q 24.65625 48.390625 19.8125 42.84375 
Q 14.984375 37.3125 14.984375 27.296875 
Q 14.984375 17.28125 19.8125 11.734375 
Q 24.65625 6.203125 33.40625 6.203125 
Q 37.3125 6.203125 41.140625 7.25 
Q 44.96875 8.296875 48.78125 10.40625 
L 48.78125 2.09375 
Q 45.015625 0.34375 40.984375 -0.53125 
Q 36.96875 -1.421875 32.421875 -1.421875 
Q 20.0625 -1.421875 12.78125 6.34375 
Q 5.515625 14.109375 5.515625 27.296875 
Q 5.515625 40.671875 12.859375 48.328125 
Q 20.21875 56 33.015625 56 
Q 37.15625 56 41.109375 55.140625 
Q 45.0625 54.296875 48.78125 52.59375 
z
" id="DejaVuSans-99"/>
      </defs>
      <use xlink:href="#DejaVuSans-112"/>
      <use x="63.476562" xlink:href="#DejaVuSans-101"/>
      <use x="125" xlink:href="#DejaVuSans-114"/>
      <use x="166.113281" xlink:href="#DejaVuSans-97"/>
      <use x="227.392578" xlink:href="#DejaVuSans-99"/>
      <use x="282.373047" xlink:href="#DejaVuSans-111"/>
      <use x="343.554688" xlink:href="#DejaVuSans-116"/>
      <use x="382.763672" xlink:href="#DejaVuSans-116"/>
      <use x="421.972656" xlink:href="#DejaVuSans-97"/>
     </g>
    </g>
    <g id="patch_23">
     <path d="M 284.97312 97.629062 
L 304.97312 97.629062 
L 304.97312 90.629062 
L 284.97312 90.629062 
z
" style="fill:#7fc97f;"/>
    </g>
    <g id="text_6">
     <!-- WEEEhire-ng -->
     <g transform="translate(312.97312 97.629062)scale(0.1 -0.1)">
      <defs>
       <path d="M 3.328125 72.90625 
L 13.28125 72.90625 
L 28.609375 11.28125 
L 43.890625 72.90625 
L 54.984375 72.90625 
L 70.3125 11.28125 
L 85.59375 72.90625 
L 95.609375 72.90625 
L 77.296875 0 
L 64.890625 0 
L 49.515625 63.28125 
L 33.984375 0 
L 21.578125 0 
z
" id="DejaVuSans-87"/>
       <path d="M 9.8125 72.90625 
L 55.90625 72.90625 
L 55.90625 64.59375 
L 19.671875 64.59375 
L 19.671875 43.015625 
L 54.390625 43.015625 
L 54.390625 34.71875 
L 19.671875 34.71875 
L 19.671875 8.296875 
L 56.78125 8.296875 
L 56.78125 0 
L 9.8125 0 
z
" id="DejaVuSans-69"/>
      </defs>
      <use xlink:href="#DejaVuSans-87"/>
      <use x="98.876953" xlink:href="#DejaVuSans-69"/>
      <use x="162.060547" xlink:href="#DejaVuSans-69"/>
      <use x="225.244141" xlink:href="#DejaVuSans-69"/>
      <use x="288.427734" xlink:href="#DejaVuSans-104"/>
      <use x="351.806641" xlink:href="#DejaVuSans-105"/>
      <use x="379.589844" xlink:href="#DejaVuSans-114"/>
      <use x="418.453125" xlink:href="#DejaVuSans-101"/>
      <use x="479.976562" xlink:href="#DejaVuSans-45"/>
      <use x="516.060547" xlink:href="#DejaVuSans-110"/>
      <use x="579.439453" xlink:href="#DejaVuSans-103"/>
     </g>
    </g>
    <g id="patch_24">
     <path d="M 284.97312 112.307187 
L 304.97312 112.307187 
L 304.97312 105.307187 
L 284.97312 105.307187 
z
" style="fill:#ffff99;"/>
    </g>
    <g id="text_7">
     <!-- cannolo -->
     <g transform="translate(312.97312 112.307187)scale(0.1 -0.1)">
      <use xlink:href="#DejaVuSans-99"/>
      <use x="54.980469" xlink:href="#DejaVuSans-97"/>
      <use x="116.259766" xlink:href="#DejaVuSans-110"/>
      <use x="179.638672" xlink:href="#DejaVuSans-110"/>
      <use x="243.017578" xlink:href="#DejaVuSans-111"/>
      <use x="304.199219" xlink:href="#DejaVuSans-108"/>
      <use x="331.982422" xlink:href="#DejaVuSans-111"/>
     </g>
    </g>
    <g id="patch_25">
     <path d="M 284.97312 126.985312 
L 304.97312 126.985312 
L 304.97312 119.985312 
L 284.97312 119.985312 
z
" style="fill:#bf5b17;"/>
    </g>
    <g id="text_8">
     <!-- sardina -->
     <g transform="translate(312.97312 126.985312)scale(0.1 -0.1)">
      <defs>
       <path d="M 45.40625 46.390625 
L 45.40625 75.984375 
L 54.390625 75.984375 
L 54.390625 0 
L 45.40625 0 
L 45.40625 8.203125 
Q 42.578125 3.328125 38.25 0.953125 
Q 33.9375 -1.421875 27.875 -1.421875 
Q 17.96875 -1.421875 11.734375 6.484375 
Q 5.515625 14.40625 5.515625 27.296875 
Q 5.515625 40.1875 11.734375 48.09375 
Q 17.96875 56 27.875 56 
Q 33.9375 56 38.25 53.625 
Q 42.578125 51.265625 45.40625 46.390625 
z
M 14.796875 27.296875 
Q 14.796875 17.390625 18.875 11.75 
Q 22.953125 6.109375 30.078125 6.109375 
Q 37.203125 6.109375 41.296875 11.75 
Q 45.40625 17.390625 45.40625 27.296875 
Q 45.40625 37.203125 41.296875 42.84375 
Q 37.203125 48.484375 30.078125 48.484375 
Q 22.953125 48.484375 18.875 42.84375 
Q 14.796875 37.203125 14.796875 27.296875 
z
" id="DejaVuSans-100"/>
      </defs>
      <use xlink:href="#DejaVuSans-115"/>
      <use x="52.099609" xlink:href="#DejaVuSans-97"/>
      <use x="113.378906" xlink:href="#DejaVuSans-114"/>
      <use x="152.742188" xlink:href="#DejaVuSans-100"/>
      <use x="216.21875" xlink:href="#DejaVuSans-105"/>
      <use x="244.001953" xlink:href="#DejaVuSans-110"/>
      <use x="307.380859" xlink:href="#DejaVuSans-97"/>
     </g>
    </g>
    <g id="patch_26">
     <path d="M 284.97312 141.663437 
L 304.97312 141.663437 
L 304.97312 134.663437 
L 284.97312 134.663437 
z
" style="fill:#377eb8;"/>
    </g>
    <g id="text_9">
     <!-- WEEEbsite -->
     <g transform="translate(312.97312 141.663437)scale(0.1 -0.1)">
      <use xlink:href="#DejaVuSans-87"/>
      <use x="98.876953" xlink:href="#DejaVuSans-69"/>
      <use x="162.060547" xlink:href="#DejaVuSans-69"/>
      <use x="225.244141" xlink:href="#DejaVuSans-69"/>
      <use x="288.427734" xlink:href="#DejaVuSans-98"/>
      <use x="351.904297" xlink:href="#DejaVuSans-115"/>
      <use x="404.003906" xlink:href="#DejaVuSans-105"/>
      <use x="431.787109" xlink:href="#DejaVuSans-116"/>
      <use x="470.996094" xlink:href="#DejaVuSans-101"/>
     </g>
    </g>
    <g id="patch_27">
     <path d="M 284.97312 156.341562 
L 304.97312 156.341562 
L 304.97312 149.341562 
L 284.97312 149.341562 
z
" style="fill:#ff7f00;"/>
    </g>
    <g id="text_10">
     <!-- pytarallo -->
     <g transform="translate(312.97312 156.341562)scale(0.1 -0.1)">
      <use xlink:href="#DejaVuSans-112"/>
      <use x="63.476562" xlink:href="#DejaVuSans-121"/>
      <use x="122.65625" xlink:href="#DejaVuSans-116"/>
      <use x="161.865234" xlink:href="#DejaVuSans-97"/>
      <use x="223.144531" xlink:href="#DejaVuSans-114"/>
      <use x="264.257812" xlink:href="#DejaVuSans-97"/>
      <use x="325.537109" xlink:href="#DejaVuSans-108"/>
      <use x="353.320312" xlink:href="#DejaVuSans-108"/>
      <use x="381.103516" xlink:href="#DejaVuSans-111"/>
     </g>
    </g>
    <g id="patch_28">
     <path d="M 284.97312 171.019687 
L 304.97312 171.019687 
L 304.97312 164.019687 
L 284.97312 164.019687 
z
" style="fill:#f781bf;"/>
    </g>
    <g id="text_11">
     <!-- pesca -->
     <g transform="translate(312.97312 171.019687)scale(0.1 -0.1)">
      <use xlink:href="#DejaVuSans-112"/>
      <use x="63.476562" xlink:href="#DejaVuSans-101"/>
      <use x="125" xlink:href="#DejaVuSans-115"/>
      <use x="177.099609" xlink:href="#DejaVuSans-99"/>
      <use x="232.080078" xlink:href="#DejaVuSans-97"/>
     </g>
    </g>
    <g id="patch_29">
     <path d="M 284.97312 185.697812 
L 304.97312 185.697812 
L 304.97312 178.697812 
L 284.97312 178.697812 
z
" style="fill:#aec7e8;"/>
    </g>
    <g id="text_12">
     <!-- crauto -->
     <g transform="translate(312.97312 185.697812)scale(0.1 -0.1)">
      <defs>
       <path d="M 8.5 21.578125 
L 8.5 54.6875 
L 17.484375 54.6875 
L 17.484375 21.921875 
Q 17.484375 14.15625 20.5 10.265625 
Q 23.53125 6.390625 29.59375 6.390625 
Q 36.859375 6.390625 41.078125 11.03125 
Q 45.3125 15.671875 45.3125 23.6875 
L 45.3125 54.6875 
L 54.296875 54.6875 
L 54.296875 0 
L 45.3125 0 
L 45.3125 8.40625 
Q 42.046875 3.421875 37.71875 1 
Q 33.40625 -1.421875 27.6875 -1.421875 
Q 18.265625 -1.421875 13.375 4.4375 
Q 8.5 10.296875 8.5 21.578125 
z
M 31.109375 56 
z
" id="DejaVuSans-117"/>
      </defs>
      <use xlink:href="#DejaVuSans-99"/>
      <use x="54.980469" xlink:href="#DejaVuSans-114"/>
      <use x="96.09375" xlink:href="#DejaVuSans-97"/>
      <use x="157.373047" xlink:href="#DejaVuSans-117"/>
      <use x="220.751953" xlink:href="#DejaVuSans-116"/>
      <use x="259.960938" xlink:href="#DejaVuSans-111"/>
     </g>
    </g>
    <g id="patch_30">
     <path d="M 284.97312 200.375937 
L 304.97312 200.375937 
L 304.97312 193.375937 
L 284.97312 193.375937 
z
" style="fill:#2ca02c;"/>
    </g>
    <g id="text_13">
     <!-- arancina -->
     <g transform="translate(312.97312 200.375937)scale(0.1 -0.1)">
      <use xlink:href="#DejaVuSans-97"/>
      <use x="61.279297" xlink:href="#DejaVuSans-114"/>
      <use x="102.392578" xlink:href="#DejaVuSans-97"/>
      <use x="163.671875" xlink:href="#DejaVuSans-110"/>
      <use x="227.050781" xlink:href="#DejaVuSans-99"/>
      <use x="282.03125" xlink:href="#DejaVuSans-105"/>
      <use x="309.814453" xlink:href="#DejaVuSans-110"/>
      <use x="373.193359" xlink:href="#DejaVuSans-97"/>
     </g>
    </g>
    <g id="patch_31">
     <path d="M 284.97312 215.054062 
L 304.97312 215.054062 
L 304.97312 208.054062 
L 284.97312 208.054062 
z
" style="fill:#ff9896;"/>
    </g>
    <g id="text_14">
     <!-- sedano -->
     <g transform="translate(312.97312 215.054062)scale(0.1 -0.1)">
      <use xlink:href="#DejaVuSans-115"/>
      <use x="52.099609" xlink:href="#DejaVuSans-101"/>
      <use x="113.623047" xlink:href="#DejaVuSans-100"/>
      <use x="177.099609" xlink:href="#DejaVuSans-97"/>
      <use x="238.378906" xlink:href="#DejaVuSans-110"/>
      <use x="301.757812" xlink:href="#DejaVuSans-111"/>
     </g>
    </g>
    <g id="patch_32">
     <path d="M 284.97312 229.732187 
L 304.97312 229.732187 
L 304.97312 222.732187 
L 284.97312 222.732187 
z
" style="fill:#8c564b;"/>
    </g>
    <g id="text_15">
     <!-- vhdl-lib -->
     <g transform="translate(312.97312 229.732187)scale(0.1 -0.1)">
      <defs>
       <path d="M 2.984375 54.6875 
L 12.5 54.6875 
L 29.59375 8.796875 
L 46.6875 54.6875 
L 56.203125 54.6875 
L 35.6875 0 
L 23.484375 0 
z
" id="DejaVuSans-118"/>
      </defs>
      <use xlink:href="#DejaVuSans-118"/>
      <use x="59.179688" xlink:href="#DejaVuSans-104"/>
      <use x="122.558594" xlink:href="#DejaVuSans-100"/>
      <use x="186.035156" xlink:href="#DejaVuSans-108"/>
      <use x="213.818359" xlink:href="#DejaVuSans-45"/>
      <use x="249.902344" xlink:href="#DejaVuSans-108"/>
      <use x="277.685547" xlink:href="#DejaVuSans-105"/>
      <use x="305.46875" xlink:href="#DejaVuSans-98"/>
     </g>
    </g>
    <g id="patch_33">
     <path d="M 284.97312 244.410312 
L 304.97312 244.410312 
L 304.97312 237.410312 
L 284.97312 237.410312 
z
" style="fill:#f7b6d2;"/>
    </g>
    <g id="text_16">
     <!-- falce -->
     <g transform="translate(312.97312 244.410312)scale(0.1 -0.1)">
      <defs>
       <path d="M 37.109375 75.984375 
L 37.109375 68.5 
L 28.515625 68.5 
Q 23.6875 68.5 21.796875 66.546875 
Q 19.921875 64.59375 19.921875 59.515625 
L 19.921875 54.6875 
L 34.71875 54.6875 
L 34.71875 47.703125 
L 19.921875 47.703125 
L 19.921875 0 
L 10.890625 0 
L 10.890625 47.703125 
L 2.296875 47.703125 
L 2.296875 54.6875 
L 10.890625 54.6875 
L 10.890625 58.5 
Q 10.890625 67.625 15.140625 71.796875 
Q 19.390625 75.984375 28.609375 75.984375 
z
" id="DejaVuSans-102"/>
      </defs>
      <use xlink:href="#DejaVuSans-102"/>
      <use x="35.205078" xlink:href="#DejaVuSans-97"/>
      <use x="96.484375" xlink:href="#DejaVuSans-108"/>
      <use x="124.267578" xlink:href="#DejaVuSans-99"/>
      <use x="179.248047" xlink:href="#DejaVuSans-101"/>
     </g>
    </g>
    <g id="patch_34">
     <path d="M 284.97312 259.088437 
L 304.97312 259.088437 
L 304.97312 252.088437 
L 284.97312 252.088437 
z
" style="fill:#bcbd22;"/>
    </g>
    <g id="text_17">
     <!-- weeelab -->
     <g transform="translate(312.97312 259.088437)scale(0.1 -0.1)">
      <use xlink:href="#DejaVuSans-119"/>
      <use x="81.787109" xlink:href="#DejaVuSans-101"/>
      <use x="143.310547" xlink:href="#DejaVuSans-101"/>
      <use x="204.833984" xlink:href="#DejaVuSans-101"/>
      <use x="266.357422" xlink:href="#DejaVuSans-108"/>
      <use x="294.140625" xlink:href="#DejaVuSans-97"/>
      <use x="355.419922" xlink:href="#DejaVuSans-98"/>
     </g>
    </g>
    <g id="patch_35">
     <path d="M 284.97312 273.766562 
L 304.97312 273.766562 
L 304.97312 266.766562 
L 284.97312 266.766562 
z
" style="fill:#9edae5;"/>
    </g>
    <g id="text_18">
     <!-- tonno -->
     <g transform="translate(312.97312 273.766562)scale(0.1 -0.1)">
      <use xlink:href="#DejaVuSans-116"/>
      <use x="39.208984" xlink:href="#DejaVuSans-111"/>
      <use x="100.390625" xlink:href="#DejaVuSans-110"/>
      <use x="163.769531" xlink:href="#DejaVuSans-110"/>
      <use x="227.148438" xlink:href="#DejaVuSans-111"/>
     </g>
    </g>
    <g id="patch_36">
     <path d="M 284.97312 288.444687 
L 304.97312 288.444687 
L 304.97312 281.444687 
L 284.97312 281.444687 
z
" style="fill:#6b6ecf;"/>
    </g>
    <g id="text_19">
     <!-- other -->
     <g transform="translate(312.97312 288.444687)scale(0.1 -0.1)">
      <use xlink:href="#DejaVuSans-111"/>
      <use x="61.181641" xlink:href="#DejaVuSans-116"/>
      <use x="100.390625" xlink:href="#DejaVuSans-104"/>
      <use x="163.769531" xlink:href="#DejaVuSans-101"/>
      <use x="225.292969" xlink:href="#DejaVuSans-114"/>
     </g>
    </g>
   </g>
  </g>
 </g>
</svg>
